<svg width="541.2" height="79" viewBox="0 0 541.2 79" xmlns="http://www.w3.org/2000/svg"><g id="svgGroup" stroke-linecap="round" fill-rule="evenodd" font-size="9pt" stroke="#ffffff" stroke-width="0.25mm" fill="#ffffff" style="stroke:#ffffff;stroke-width:0.25mm;fill:#ffffff"><path d="M 8.2 5.1 L 8.2 40.7 Q 17.6 33.5 26.65 24.75 A 165.127 165.127 0 0 0 41.764 8.065 A 151.353 151.353 0 0 0 42.9 6.6 A 9.933 9.933 0 0 1 44.585 5.892 A 12.738 12.738 0 0 1 45.9 5.55 Q 47.6 5.2 49.4 5.2 A 27.787 27.787 0 0 1 50.838 5.238 A 30.51 30.51 0 0 1 51.05 5.25 Q 51.751 5.291 52.145 5.434 A 1.452 1.452 0 0 1 52.3 5.5 Q 48.7 10.2 44.6 14.65 Q 40.5 19.1 36.15 23.2 Q 31.8 27.3 27.45 31 Q 23.1 34.7 19 38 A 9.877 9.877 0 0 1 20.985 38.541 A 9.098 9.098 0 0 1 21.25 38.65 A 8.7 8.7 0 0 1 22.38 39.241 A 11.712 11.712 0 0 1 23.4 39.95 A 13.83 13.83 0 0 1 24.382 40.789 Q 25.025 41.391 25.7 42.15 A 143.124 143.124 0 0 1 26.67 43.254 Q 27.104 43.752 27.586 44.313 A 296.322 296.322 0 0 1 28.6 45.5 L 43.8 64.1 A 166.997 166.997 0 0 0 45.305 65.938 Q 45.902 66.656 46.451 67.297 A 87.587 87.587 0 0 0 47.5 68.5 Q 48.875 70.047 49.992 71.261 A 147.54 147.54 0 0 0 50.35 71.65 A 45.649 45.649 0 0 0 51.558 72.908 A 33.17 33.17 0 0 0 52.7 74 Q 53.8 75 54.9 75.9 L 54.9 76.6 Q 54.295 76.827 53.462 77.025 A 20.495 20.495 0 0 1 52.9 77.15 Q 51.7 77.4 50.3 77.55 Q 48.9 77.7 47.6 77.8 A 41.083 41.083 0 0 1 46.681 77.861 Q 45.963 77.9 45.4 77.9 A 5.475 5.475 0 0 1 44.486 77.388 Q 43.438 76.675 42.2 75.3 Q 40.4 73.3 36.8 68.6 L 21.2 48.2 Q 19.287 45.789 17.824 44.691 A 7.053 7.053 0 0 0 17.25 44.3 Q 15.6 43.3 13.6 43.3 A 12.019 12.019 0 0 0 12.278 43.369 Q 11.312 43.476 10.55 43.75 Q 9.3 44.2 8.2 45 L 8.2 76.3 A 10.177 10.177 0 0 1 6.106 77.175 A 13.286 13.286 0 0 1 4.45 77.55 A 27.625 27.625 0 0 1 0.072 77.9 A 30.271 30.271 0 0 1 0 77.9 L 0 6.9 A 14.914 14.914 0 0 1 4.137 5.47 Q 5.907 5.123 7.929 5.101 A 25.287 25.287 0 0 1 8.2 5.1 Z M 272.1 63 L 272.1 26.7 A 13.188 13.188 0 0 1 275.156 25.552 A 15.183 15.183 0 0 1 275.85 25.4 Q 277.9 25 280 25 L 280 76.4 A 8.615 8.615 0 0 1 278.491 77.069 Q 277.773 77.313 276.94 77.478 A 15.039 15.039 0 0 1 276.55 77.55 Q 274.5 77.9 272.5 77.9 L 272.5 68.4 A 16.37 16.37 0 0 1 271.398 70.027 Q 270.814 70.791 270.091 71.583 A 28.298 28.298 0 0 1 269.75 71.95 A 21.225 21.225 0 0 1 267.037 74.352 A 25.385 25.385 0 0 1 265.6 75.35 A 22.221 22.221 0 0 1 261.993 77.221 A 26.662 26.662 0 0 1 260.15 77.9 A 20.01 20.01 0 0 1 255.921 78.776 A 25.021 25.021 0 0 1 253.4 78.9 A 22.093 22.093 0 0 1 247.946 78.242 A 20.047 20.047 0 0 1 246.45 77.8 Q 243.2 76.7 240.8 74.35 A 15.746 15.746 0 0 1 237.919 70.452 A 19.546 19.546 0 0 1 237 68.45 A 19.021 19.021 0 0 1 235.961 64.628 Q 235.656 62.823 235.609 60.769 A 33.194 33.194 0 0 1 235.6 60 L 235.6 26.7 A 13.188 13.188 0 0 1 238.656 25.552 A 15.183 15.183 0 0 1 239.35 25.4 Q 241.4 25 243.5 25 L 243.5 57 A 30.617 30.617 0 0 0 243.668 60.302 Q 243.93 62.711 244.6 64.6 Q 245.7 67.7 247.6 69.6 Q 249.5 71.5 252.05 72.35 A 16.85 16.85 0 0 0 256.736 73.185 A 19.329 19.329 0 0 0 257.5 73.2 Q 262.3 73.2 266.2 70.45 A 16.894 16.894 0 0 0 271.809 63.651 A 20.337 20.337 0 0 0 272.1 63 Z M 454.2 73.1 L 454.4 73.5 A 4.526 4.526 0 0 1 454.178 73.832 Q 453.897 74.219 453.45 74.7 Q 452.8 75.4 452 76.05 Q 451.2 76.7 450.25 77.2 Q 449.3 77.7 448.5 77.9 Q 445.3 77.7 443.1 75.45 A 8.223 8.223 0 0 1 440.971 71.467 A 11.446 11.446 0 0 1 440.7 69.5 Q 439.9 71 438.3 72.65 A 17.537 17.537 0 0 1 435.92 74.686 A 21.535 21.535 0 0 1 434.45 75.65 A 20.307 20.307 0 0 1 431.384 77.142 A 25.233 25.233 0 0 1 429.3 77.85 Q 426.4 78.7 423 78.7 A 22.65 22.65 0 0 1 418.372 78.255 Q 415.485 77.652 413.267 76.233 A 13.016 13.016 0 0 1 411.75 75.1 A 11.83 11.83 0 0 1 407.638 66.626 A 16.404 16.404 0 0 1 407.6 65.5 A 13.306 13.306 0 0 1 411.731 55.633 A 16.654 16.654 0 0 1 412.3 55.1 A 17.48 17.48 0 0 1 416.079 52.594 Q 420.718 50.248 428.4 48.9 L 440.3 46.8 L 440.3 42.9 A 24.83 24.83 0 0 0 439.973 38.732 Q 439.253 34.513 436.95 31.9 A 10.673 10.673 0 0 0 431.702 28.691 Q 429.997 28.211 427.959 28.121 A 21.713 21.713 0 0 0 427 28.1 A 13.65 13.65 0 0 0 423.652 28.492 A 10.51 10.51 0 0 0 420.05 30.15 A 6.665 6.665 0 0 0 417.277 34.94 A 9.996 9.996 0 0 0 417.2 36.2 Q 417.2 38 418.4 39.4 A 5.57 5.57 0 0 1 417.529 40.307 Q 417.073 40.692 416.488 41.053 A 12.678 12.678 0 0 1 415.5 41.6 A 11.678 11.678 0 0 1 411.923 42.738 A 11.032 11.032 0 0 1 411.4 42.8 A 6.44 6.44 0 0 1 411.068 42.439 Q 410.736 42.051 410.333 41.489 A 22.765 22.765 0 0 1 410.2 41.3 Q 409.619 40.47 409.52 39.158 A 7.434 7.434 0 0 1 409.5 38.6 Q 409.5 35.5 411.3 32.8 A 16.622 16.622 0 0 1 415.292 28.649 A 19.255 19.255 0 0 1 416 28.15 Q 418.9 26.2 422.7 25.1 Q 426.5 24 430.6 24 Q 440.2 24 444.2 28.35 A 14.336 14.336 0 0 1 447.407 34.237 Q 448.026 36.416 448.162 39.013 A 28.526 28.526 0 0 1 448.2 40.5 L 448.2 65.6 A 14.61 14.61 0 0 0 448.32 67.545 Q 448.664 70.1 450 71.25 Q 451.8 72.8 454.2 73.1 Z M 504.1 77.9 L 504.1 70.3 A 19.674 19.674 0 0 1 502.704 71.988 A 25.218 25.218 0 0 1 501.4 73.3 A 16.43 16.43 0 0 1 499.177 75.037 A 20.711 20.711 0 0 1 497.55 76 A 22.541 22.541 0 0 1 494.813 77.223 A 28.951 28.951 0 0 1 492.4 78 A 21.725 21.725 0 0 1 488.916 78.647 A 28.557 28.557 0 0 1 485.9 78.8 Q 481.5 78.8 477.5 77.2 Q 473.5 75.6 470.35 72.45 A 21.694 21.694 0 0 1 466.425 67.014 A 26.508 26.508 0 0 1 465.35 64.65 A 25.404 25.404 0 0 1 463.857 58.981 A 34.527 34.527 0 0 1 463.5 53.9 Q 463.5 47.9 465.75 42.45 Q 468 37 471.9 32.9 Q 475.8 28.8 481.05 26.4 Q 486.3 24 492.3 24 A 28.228 28.228 0 0 1 495.36 24.157 Q 497.458 24.386 499.15 24.95 Q 502 25.9 504.1 27.3 L 504.1 1.7 A 13.188 13.188 0 0 1 507.156 0.552 A 15.183 15.183 0 0 1 507.85 0.4 Q 509.9 0 512 0 L 512 76.4 A 7.842 7.842 0 0 1 510.722 76.976 Q 509.686 77.342 508.35 77.55 A 29.815 29.815 0 0 1 505.635 77.851 A 24.543 24.543 0 0 1 504.1 77.9 Z M 69.5 77.4 L 69.5 7.7 A 67.145 67.145 0 0 1 75.787 5.954 A 83.236 83.236 0 0 1 80.05 5.1 A 63.761 63.761 0 0 1 85.825 4.382 Q 88.77 4.144 92.067 4.107 A 109.265 109.265 0 0 1 93.3 4.1 A 49.978 49.978 0 0 1 100.735 4.626 Q 104.95 5.261 108.526 6.66 A 30.944 30.944 0 0 1 109 6.85 A 34.689 34.689 0 0 1 115.995 10.665 A 29.156 29.156 0 0 1 120.15 14.25 Q 124.6 18.9 126.8 25.05 A 38.336 38.336 0 0 1 128.998 37.669 A 43.064 43.064 0 0 1 129 38.1 A 52.846 52.846 0 0 1 128.249 47.214 A 40.247 40.247 0 0 1 125.9 55.5 A 36.871 36.871 0 0 1 119.844 65.578 A 34.239 34.239 0 0 1 117.2 68.35 A 36.331 36.331 0 0 1 105.692 75.579 A 42.609 42.609 0 0 1 103.75 76.3 A 49.482 49.482 0 0 1 92.736 78.681 A 61.303 61.303 0 0 1 86.4 79 A 93.681 93.681 0 0 1 80.094 78.78 A 108.341 108.341 0 0 1 77.8 78.6 A 78.236 78.236 0 0 1 72.959 78.023 A 62.313 62.313 0 0 1 69.5 77.4 Z M 320.079 76.652 A 6.841 6.841 0 0 0 321.1 76.1 A 189.597 189.597 0 0 0 323.033 72.517 A 223.329 223.329 0 0 0 327.25 64.05 Q 330.3 57.6 333.05 50.95 Q 335.8 44.3 338.1 37.7 A 197.559 197.559 0 0 0 339.727 32.834 A 165.549 165.549 0 0 0 342 25.1 Q 341.5 25 341 25 L 340 25 Q 338.5 25 337 25.4 A 16.106 16.106 0 0 0 336.907 25.425 Q 335.466 25.819 334.4 26.4 Q 332.1 37.6 328.05 49.75 A 190.924 190.924 0 0 1 327.538 51.263 A 173.969 173.969 0 0 1 318.6 72.7 A 140.186 140.186 0 0 1 316.335 67.939 A 177.306 177.306 0 0 1 313.45 61.2 Q 310.9 54.9 308.6 48.45 Q 306.3 42 304.45 35.9 A 227.343 227.343 0 0 1 303.945 34.21 Q 302.445 29.125 301.5 25 Q 299.4 25 297.45 25.55 Q 295.5 26.1 293.8 27.2 Q 294.531 30.181 295.563 33.637 A 202.484 202.484 0 0 0 297.35 39.3 A 232.531 232.531 0 0 0 297.633 40.151 A 253.431 253.431 0 0 0 302.4 53.15 Q 305.2 60.2 308.2 66.75 A 175.196 175.196 0 0 0 309.59 69.713 Q 311.833 74.378 313.9 77.9 Q 314.856 77.9 315.955 77.742 A 21.425 21.425 0 0 0 317.75 77.4 A 16.26 16.26 0 0 0 318.88 77.096 Q 319.537 76.893 320.079 76.652 Z M 376.079 76.652 A 6.841 6.841 0 0 0 377.1 76.1 A 189.597 189.597 0 0 0 379.033 72.517 A 223.329 223.329 0 0 0 383.25 64.05 Q 386.3 57.6 389.05 50.95 Q 391.8 44.3 394.1 37.7 A 197.559 197.559 0 0 0 395.727 32.834 A 165.549 165.549 0 0 0 398 25.1 Q 397.5 25 397 25 L 396 25 Q 394.5 25 393 25.4 A 16.106 16.106 0 0 0 392.907 25.425 Q 391.466 25.819 390.4 26.4 Q 388.1 37.6 384.05 49.75 A 190.924 190.924 0 0 1 383.538 51.263 A 173.969 173.969 0 0 1 374.6 72.7 A 140.186 140.186 0 0 1 372.335 67.939 A 177.306 177.306 0 0 1 369.45 61.2 Q 366.9 54.9 364.6 48.45 Q 362.3 42 360.45 35.9 A 227.343 227.343 0 0 1 359.945 34.21 Q 358.445 29.125 357.5 25 Q 355.4 25 353.45 25.55 Q 351.5 26.1 349.8 27.2 Q 350.531 30.181 351.563 33.637 A 202.484 202.484 0 0 0 353.35 39.3 A 232.531 232.531 0 0 0 353.633 40.151 A 253.431 253.431 0 0 0 358.4 53.15 Q 361.2 60.2 364.2 66.75 A 175.196 175.196 0 0 0 365.59 69.713 Q 367.833 74.378 369.9 77.9 Q 370.856 77.9 371.955 77.742 A 21.425 21.425 0 0 0 373.75 77.4 A 16.26 16.26 0 0 0 374.88 77.096 Q 375.537 76.893 376.079 76.652 Z M 173.1 77.9 L 173.1 8.1 Q 177.565 6.513 183.309 5.319 A 106.963 106.963 0 0 1 183.4 5.3 A 57.164 57.164 0 0 1 190.675 4.298 A 72.039 72.039 0 0 1 196.1 4.1 Q 201.613 4.1 205.777 5.126 A 24.939 24.939 0 0 1 208.2 5.85 A 26.123 26.123 0 0 1 212.051 7.566 Q 214.368 8.846 216.05 10.5 A 17.296 17.296 0 0 1 219.949 16.188 A 16.741 16.741 0 0 1 220.3 17.1 Q 221.6 20.8 221.6 24.7 A 26.071 26.071 0 0 1 220.909 30.814 A 21.6 21.6 0 0 1 219.15 35.6 Q 216.7 40.4 212.45 43.7 A 29.641 29.641 0 0 1 205.092 47.845 A 35.359 35.359 0 0 1 202.5 48.75 Q 196.8 50.5 190.2 50.5 Q 187.6 50.5 185.3 50.3 A 60.679 60.679 0 0 1 183.659 50.136 Q 182.363 49.988 181.3 49.8 L 181.3 76.3 A 10.177 10.177 0 0 1 179.206 77.175 A 13.286 13.286 0 0 1 177.55 77.55 A 27.625 27.625 0 0 1 173.172 77.9 A 30.271 30.271 0 0 1 173.1 77.9 Z M 77.7 9.5 L 77.7 72.2 A 23.641 23.641 0 0 0 79.765 72.751 Q 80.822 72.986 82.045 73.178 A 51.756 51.756 0 0 0 84.05 73.45 Q 87.9 73.9 91.8 73.9 A 34.338 34.338 0 0 0 99.054 73.158 A 29.492 29.492 0 0 0 103.05 72 Q 108.2 70.1 112 66.15 Q 115.8 62.2 117.95 56.1 A 35.386 35.386 0 0 0 119.489 49.882 Q 120.1 46.032 120.1 41.5 Q 120.1 34.7 118.3 28.7 A 30.355 30.355 0 0 0 114.78 20.952 A 27.452 27.452 0 0 0 112.8 18.25 Q 109.1 13.8 103.4 11.2 Q 97.955 8.716 90.502 8.605 A 47.12 47.12 0 0 0 89.8 8.6 A 104.923 104.923 0 0 0 87.016 8.635 Q 84.813 8.694 83 8.85 Q 80.1 9.1 77.7 9.5 Z M 504.1 64.3 L 504.1 37.2 A 16.721 16.721 0 0 0 502.718 34.926 A 19.748 19.748 0 0 0 502.05 34.05 Q 500.8 32.5 499 31.25 Q 497.2 30 494.85 29.25 A 15.602 15.602 0 0 0 491.865 28.624 A 20.032 20.032 0 0 0 489.6 28.5 Q 486.3 28.5 483.1 29.8 A 16.496 16.496 0 0 0 477.671 33.424 A 19.011 19.011 0 0 0 477.35 33.75 A 17.58 17.58 0 0 0 474.674 37.408 A 23.196 23.196 0 0 0 473.25 40.5 Q 471.7 44.6 471.7 50.1 A 40.074 40.074 0 0 0 471.952 54.724 Q 472.222 57.045 472.781 59.023 A 20.954 20.954 0 0 0 473.35 60.75 A 25.963 25.963 0 0 0 475.03 64.364 Q 476.155 66.346 477.55 67.85 A 16.313 16.313 0 0 0 481.084 70.758 A 14.498 14.498 0 0 0 483.3 71.85 A 18.317 18.317 0 0 0 487.261 72.924 A 15.811 15.811 0 0 0 489.6 73.1 A 19.478 19.478 0 0 0 493.677 72.696 Q 496.511 72.089 498.675 70.575 A 12.371 12.371 0 0 0 498.85 70.45 A 18.183 18.183 0 0 0 501.821 67.779 A 14.125 14.125 0 0 0 504.1 64.3 Z M 530.8 77.9 L 530.8 26.7 A 13.188 13.188 0 0 1 533.856 25.552 A 15.183 15.183 0 0 1 534.55 25.4 Q 536.6 25 538.7 25 L 538.7 76.4 A 7.842 7.842 0 0 1 537.422 76.976 Q 536.386 77.342 535.05 77.55 A 29.815 29.815 0 0 1 532.335 77.851 A 24.543 24.543 0 0 1 530.8 77.9 Z M 181.3 10 L 181.3 43.1 A 20.608 20.608 0 0 0 183.849 44.262 A 27.821 27.821 0 0 0 186.45 45.1 Q 188.651 45.697 191.659 45.848 A 42.6 42.6 0 0 0 193.8 45.9 A 26.621 26.621 0 0 0 199.53 45.319 Q 203.407 44.465 206.301 42.355 A 16.091 16.091 0 0 0 207.6 41.3 Q 212.582 36.807 212.697 28.402 A 29.199 29.199 0 0 0 212.7 28 A 25.818 25.818 0 0 0 212.132 22.508 A 22.911 22.911 0 0 0 211.6 20.5 Q 210.5 17 208.1 14.35 A 15.928 15.928 0 0 0 203.481 10.857 A 19.19 19.19 0 0 0 202.05 10.2 A 18.853 18.853 0 0 0 198.174 9.099 Q 196.35 8.775 194.273 8.714 A 33.28 33.28 0 0 0 193.3 8.7 Q 189.7 8.7 186.7 9.1 Q 183.7 9.5 181.3 10 Z M 440.3 64.8 L 440.3 50.4 L 426.9 52.8 A 26.721 26.721 0 0 0 423.631 53.607 Q 420.565 54.588 418.65 56.2 A 7.776 7.776 0 0 0 416.025 60.735 A 11.77 11.77 0 0 0 415.8 63.1 A 13.077 13.077 0 0 0 416.144 66.194 A 8.536 8.536 0 0 0 418.85 70.75 A 10.747 10.747 0 0 0 425.8 73.394 A 13.676 13.676 0 0 0 426.2 73.4 A 18.775 18.775 0 0 0 430.453 72.941 A 14.089 14.089 0 0 0 435.05 71 A 14.152 14.152 0 0 0 438.958 67.247 A 13.377 13.377 0 0 0 440.3 64.8 Z M 541.2 9.3 Q 540.3 10.9 538.4 12.65 A 22.07 22.07 0 0 1 537.252 13.641 Q 536.641 14.13 536.079 14.495 A 8.986 8.986 0 0 1 535 15.1 A 9.087 9.087 0 0 1 533.87 14.461 Q 533.311 14.095 532.705 13.606 A 22.236 22.236 0 0 1 531.6 12.65 A 22.561 22.561 0 0 1 530.302 11.359 Q 529.661 10.664 529.171 9.994 A 11.551 11.551 0 0 1 528.7 9.3 Q 529.559 7.839 531.083 6.304 A 23.651 23.651 0 0 1 531.6 5.8 A 24.915 24.915 0 0 1 532.859 4.681 Q 534.016 3.725 535 3.2 Q 536.008 3.738 537.219 4.726 A 27.037 27.037 0 0 1 538.45 5.8 Q 539.935 7.171 540.753 8.483 A 7.933 7.933 0 0 1 541.2 9.3 Z" vector-effect="non-scaling-stroke"/></g></svg>