<?xml version="1.0" encoding="utf-8"?>
<!-- Generator: Adobe Illustrator 21.0.0, SVG Export Plug-In . SVG Version: 6.00 Build 0)  -->
<svg version="1.1" id="Layer_1" xmlns="http://www.w3.org/2000/svg" xmlns:xlink="http://www.w3.org/1999/xlink" x="0px" y="0px"
	 viewBox="0 0 512 512" style="enable-background:new 0 0 512 512;" xml:space="preserve">
<g>
	<path d="M203.2,0c-6-0.2-11.1,4.7-11.1,10.9v42.3c0,6,4.7,10.7,10.7,10.7v0.4c133,5.1,239.9,112.1,245,245h0.4
		c0,6,4.7,10.7,10.7,10.7h42.3c6.2,0,11.1-5.1,10.9-11.1C506.2,141.1,370.9,5.8,203.2,0z M203.2,106.7c-6-0.2-11.1,4.9-11.1,10.9
		v42.3c0,6,4.7,10.7,10.7,10.7v0.6c74.1,4.9,133.2,64,138.1,138.1h0.6c0,6,4.7,10.7,10.7,10.7h42.3c6,0,11.1-5.1,10.9-11.1
		C399.5,200,312,112.5,203.2,106.7z M10.7,127.8c-6,0-10.7,4.7-10.7,10.7v234.8C0,449.7,62.3,512,138.7,512s138.7-62.3,138.7-138.7
		s-62.3-138.7-138.7-138.7c-6,0-10.7,4.7-10.7,10.7v64c0,6,4.7,10.7,10.7,10.7c29.4,0,53.4,23.9,53.4,53.4s-23.9,53.4-53.4,53.4
		s-53.4-23.9-53.4-53.4V138.5c0-6-4.7-10.7-10.7-10.7H10.7z"/>
</g>
</svg>
