<?xml version="1.0" encoding="iso-8859-1"?>
<!-- Generator: Adobe Illustrator 19.0.0, SVG Export Plug-In . SVG Version: 6.00 Build 0)  -->
<svg version="1.1" id="Layer_1" xmlns="http://www.w3.org/2000/svg" xmlns:xlink="http://www.w3.org/1999/xlink" x="0px" y="0px"
	 viewBox="0 0 512 512" style="enable-background:new 0 0 512 512;" xml:space="preserve">
<polygon style="fill:#F2CA7F;" points="8.226,294.085 139.481,390.986 139.481,350.212 325.247,350.212 325.247,237.958 
	139.481,237.958 139.481,197.185 "/>
<path d="M78.787,335.403l-56.711-41.866l109.178-80.608v24.483c0,4.543,3.682,8.226,8.226,8.226h19.294
	c4.544,0,8.226-3.683,8.226-8.226s-3.682-8.226-8.226-8.226h-11.067v-32.556c0-3.105-1.748-5.945-4.52-7.345
	c-2.772-1.398-6.095-1.118-8.593,0.726L3.34,286.919c-2.1,1.551-3.34,4.007-3.34,6.617c0,2.612,1.239,5.067,3.341,6.618
	l65.675,48.483c1.47,1.086,3.181,1.609,4.879,1.609c2.523,0,5.012-1.156,6.625-3.341C83.219,343.252,82.443,338.101,78.787,335.403z
	"/>
<path d="M325.248,294.342c-4.544,0-8.226,3.683-8.226,8.226v38.868H139.481c-4.544,0-8.226,3.683-8.226,8.226v24.473l-23.585-17.41
	c-3.653-2.697-8.806-1.922-11.504,1.733c-2.698,3.656-1.923,8.806,1.733,11.505l36.696,27.09c1.441,1.064,3.159,1.608,4.887,1.608
	c1.264,0,2.535-0.292,3.706-0.883c2.771-1.398,4.519-4.239,4.519-7.343v-32.544h177.541c4.544,0,8.226-3.683,8.226-8.226V302.57
	C333.474,298.025,329.792,294.342,325.248,294.342z"/>
<rect x="171.954" y="237.962" style="fill:#E0B76E;" width="153.297" height="51.991"/>
<polygon style="fill:#8CC1EA;" points="503.774,219.013 372.519,122.113 372.519,162.886 186.753,162.886 186.753,275.14 
	372.519,275.14 372.519,315.914 "/>
<path d="M508.659,211.847l-131.254-96.901c-2.496-1.844-5.819-2.125-8.593-0.726c-2.771,1.398-4.519,4.239-4.519,7.345v32.547
	H257.69c-4.544,0-8.226,3.683-8.226,8.226s3.682,8.226,8.226,8.226h114.829c4.544,0,8.226-3.683,8.226-8.226v-24.475l109.177,80.603
	l-109.177,80.602v-24.474c0-4.543-3.682-8.226-8.226-8.226H194.981v-95.802h35.288c4.544,0,8.226-3.683,8.226-8.226
	s-3.682-8.226-8.226-8.226h-43.515c-4.544,0-8.226,3.683-8.226,8.226v112.255c0,4.543,3.682,8.226,8.226,8.226h177.538v32.547
	c0,3.105,1.748,5.945,4.519,7.343c1.171,0.591,2.443,0.883,3.706,0.883c1.728,0,3.445-0.544,4.887-1.608l131.254-96.901
	c2.102-1.551,3.341-4.007,3.341-6.618C512,215.854,510.761,213.398,508.659,211.847z"/>
<g>
</g>
<g>
</g>
<g>
</g>
<g>
</g>
<g>
</g>
<g>
</g>
<g>
</g>
<g>
</g>
<g>
</g>
<g>
</g>
<g>
</g>
<g>
</g>
<g>
</g>
<g>
</g>
<g>
</g>
</svg>
